<svg xmlns="http://www.w3.org/2000/svg" viewBox="0 0 72 66">
  <path fill="#362D59" d="M29,2.26a4.67,4.67,0,0,0-8,0L14.42,13.53A32.21,32.21,0,0,1,32.17,40.19H27.55A27.68,27.68,0,0,0,12.09,17.47L6,28a15.92,15.92,0,0,1,9.23,12.17H4.62A.76.76,0,0,1,4,39.06l2.94-5a10.74,10.74,0,0,0-3.36-1.9l-2.91,5a4.54,4.54,0,0,0,1.69,6.24A4.66,4.66,0,0,0,4.62,44H19.15a19.4,19.4,0,0,0-8-17.31l2.31-4A23.87,23.87,0,0,1,23.76,44H36.07A35.88,35.88,0,0,0,16.41,8.8l6.87-10.8a.73.73,0,0,1,1.09-.17.75.75,0,0,1,.17.17l13.7,21.45a36.08,36.08,0,0,1,12.78,2.9l-6.4,10A27.57,27.57,0,0,0,40.51,44H44.4a32.23,32.23,0,0,1,9.2-15.79l6.56,10.28a.75.75,0,0,1-1.09,1l-.17-.17L52.6,29.86a28,28,0,0,0-7.34,14.1H36.07V44h0a40.24,40.24,0,0,0-6.5-20.44Z"/>
</svg>
